<svg xmlns="http://www.w3.org/2000/svg" width="40.113" height="45.461" viewBox="0 0 40.113 45.461">
  <path id="android-svgrepo-com" d="M122.993.225a1.34,1.34,0,0,1,1.856.369l2.233,3.34a14.6,14.6,0,0,1,4.543-1.2,15.9,15.9,0,0,1,7.437,1.142L141.25.6a1.337,1.337,0,0,1,2.225,1.481l-2.03,3.046a14.592,14.592,0,0,1,1.968,1.492,13,13,0,0,1,4.351,9.651V33.65a3.91,3.91,0,0,1-4.011,3.789h-4.011v8.022h-2.674V37.439h-8.023v8.023h-2.674V37.439H122.36a3.91,3.91,0,0,1-4.011-3.789V16.794a14.034,14.034,0,0,1,6.375-11.576l-2.1-3.137a1.339,1.339,0,0,1,.366-1.856Zm10.05,5.124c-.393,0-.789.019-1.185.054a11.72,11.72,0,0,0-10.836,11.392V33.65a1.244,1.244,0,0,0,1.337,1.115h21.393a1.244,1.244,0,0,0,1.337-1.115V16.268a10.347,10.347,0,0,0-3.484-7.68,12.645,12.645,0,0,0-8.563-3.238ZM113,30.753h2.674V17.383H113V30.754Zm37.438,0h2.674V17.383h-2.674V30.754ZM127.708,11.233a2.139,2.139,0,1,0,2.139,2.139,2.139,2.139,0,0,0-2.139-2.139m10.7,0a2.139,2.139,0,1,0,2.139,2.139,2.139,2.139,0,0,0-2.139-2.139" transform="translate(-113)" fill="#fff" fill-rule="evenodd"/>
</svg>
