<svg xmlns="http://www.w3.org/2000/svg" width="40.182" height="48" viewBox="0 0 40.182 48">
  <g id="apple" transform="translate(-3.911)">
    <path id="Path_36" data-name="Path 36" d="M39.532,31.412a11.039,11.039,0,0,1-1.988-6.432,10.262,10.262,0,0,1,1.875-5.972,18.384,18.384,0,0,1,3.289-3.4,14.607,14.607,0,0,0-3-2.886,10.534,10.534,0,0,0-6.144-1.875,16.339,16.339,0,0,0-4.989.98,14.487,14.487,0,0,1-4.125.983,18.243,18.243,0,0,1-3.984-.867,19.045,19.045,0,0,0-5.1-.864A9.953,9.953,0,0,0,7.169,15.23,17.1,17.1,0,0,0,3.911,26.019a29.52,29.52,0,0,0,4.238,14.51C11,45.49,13.861,48,16.831,48a10.461,10.461,0,0,0,3.809-.983,11.248,11.248,0,0,1,4.1-.952,12.8,12.8,0,0,1,4.354.923,13.326,13.326,0,0,0,4.04.923c2.451,0,4.933-1.878,7.415-5.656a28.681,28.681,0,0,0,3.546-7.211A8.808,8.808,0,0,1,39.532,31.412Zm-1.35,9.3c-1.855,2.824-3.651,4.382-5.054,4.382a10.525,10.525,0,0,1-3.052-.745,15.5,15.5,0,0,0-5.342-1.1,14.026,14.026,0,0,0-5.19,1.172,7.683,7.683,0,0,1-2.713.76c-1.773,0-3.987-2.152-6.223-6.034A26.575,26.575,0,0,1,6.734,26.019a14.3,14.3,0,0,1,2.66-9.052A7.151,7.151,0,0,1,15.36,13.9a16.323,16.323,0,0,1,4.317.754,17.713,17.713,0,0,0,4.769.977A16.486,16.486,0,0,0,29.464,14.5a13.707,13.707,0,0,1,4.094-.836A7.7,7.7,0,0,1,38.1,15.049c.186.13.381.277.576.438A14.915,14.915,0,0,0,37.093,17.4a13.049,13.049,0,0,0-2.38,7.584,13.821,13.821,0,0,0,2.5,8.047,13.37,13.37,0,0,0,3.337,3.405,27.534,27.534,0,0,1-2.363,4.275ZM26.609,11.192a15.142,15.142,0,0,1-3,.491,13.178,13.178,0,0,1,2.25-7.412C27.3,2.191,29.723.779,33.075,0c.056.26.113.463.141.635,0,.2.031.373.031.576a11.057,11.057,0,0,1-.836,3.925,11.789,11.789,0,0,1-2.685,3.981,8.212,8.212,0,0,1-3.117,2.075Z" fill="#fff"/>
  </g>
</svg>
