<svg xmlns="http://www.w3.org/2000/svg" width="48" height="33" viewBox="0 0 48 33">
  <g id="cloud" transform="translate(0 -6)">
    <g id="Group_4" data-name="Group 4">
      <path id="Path_38" data-name="Path 38" d="M13.218,10.026A16.59,16.59,0,0,1,24,6,15.409,15.409,0,0,1,39.5,19.737,9.669,9.669,0,0,1,38.061,39H11.343A11.026,11.026,0,0,1,8.826,17.175,12.617,12.617,0,0,1,13.218,10.026ZM15.177,12.3c-2.271,1.959-3.459,4.32-3.459,6.168v1.344l-1.335.147A8.038,8.038,0,0,0,11.343,36H38.061a6.687,6.687,0,1,0,0-13.365h-1.5v-1.5A12.349,12.349,0,0,0,24,9a13.59,13.59,0,0,0-8.823,3.3Z" fill="#fff"/>
    </g>
  </g>
</svg>
