<svg id="connectdevelop" xmlns="http://www.w3.org/2000/svg" width="48.005" height="42.005" viewBox="0 0 48.005 42.005">
  <path id="Path_37" data-name="Path 37" d="M48.005,20.979a1.29,1.29,0,0,1-.3.856,1.319,1.319,0,0,1-.774.457l-4.805,8.345a1.327,1.327,0,0,1,.07.422,1.289,1.289,0,0,1-.293.832,1.267,1.267,0,0,1-.762.457l-4.524,7.9a1.062,1.062,0,0,1,.07.375,1.3,1.3,0,0,1-.387.938,1.272,1.272,0,0,1-.949.4,1.228,1.228,0,0,1-.961-.422H25.01a1.318,1.318,0,0,1-2.016,0H13.642A1.266,1.266,0,0,1,12.634,42a1.3,1.3,0,0,1-.938-.387,1.271,1.271,0,0,1-.4-.949,1.543,1.543,0,0,1,.094-.469L6.868,32.347a1.267,1.267,0,0,1-.762-.457,1.289,1.289,0,0,1-.293-.832,1.327,1.327,0,0,1,.07-.422L1.055,22.291a1.381,1.381,0,0,1-.762-.481A1.289,1.289,0,0,1,0,20.979a1.261,1.261,0,0,1,.316-.856,1.372,1.372,0,0,1,.785-.457L5.766,11.6a.321.321,0,0,0-.012-.07.321.321,0,0,1-.012-.07,1.219,1.219,0,0,1,.8-1.2l4.9-8.509a1.152,1.152,0,0,1-.094-.422,1.271,1.271,0,0,1,.4-.949,1.328,1.328,0,0,1,1.969.105h9.282a1.278,1.278,0,0,1,2.016,0H34.34A1.328,1.328,0,0,1,36.309.387a1.271,1.271,0,0,1,.4.949,1.488,1.488,0,0,1-.094.422l4.852,8.392a1.309,1.309,0,0,1,.914.41,1.256,1.256,0,0,1,.375.9,1.413,1.413,0,0,1-.164.633l4.383,7.595a1.257,1.257,0,0,1,.738.457A1.289,1.289,0,0,1,48.005,20.979ZM24.917,39.707h9.118l-8.016-8.3H22.666l-8.016,8.3h8.438a1.3,1.3,0,0,1,1.828,0ZM2.625,20.674a1.4,1.4,0,0,1,.023.3,1,1,0,0,1-.047.352l4.876,8.438.352.141,4.407-4.665V17.111L7.852,12.564a1.678,1.678,0,0,1-.68.234ZM23.112,2.3H14.017l4.454,4.688L31.456,2.3H24.893a1.245,1.245,0,0,1-1.781,0ZM39.59,30.706a.553.553,0,0,1,.117-.258l-1.5-1.594-.4,1.852Zm-2.485,0,.516-2.461L31.714,22.01l-6.938,7.2,1.477,1.5Zm-2.063,8.626.375-.656,1.524-7.266H26.933l7.806,8.04A1.3,1.3,0,0,1,35.043,39.332Zm-21.494.375h.117l8.016-8.3H12.939v7.852l.094.141A1.368,1.368,0,0,1,13.548,39.707Zm-.609-9h9.423l1.5-1.547-7.243-7.524-3.68,3.891Zm-4.524,0h3.821v-4.43L8.3,30.425A1.557,1.557,0,0,1,8.415,30.706ZM8.392,11.368a.1.1,0,0,0,.012.047.1.1,0,0,1,.012.047,1.271,1.271,0,0,1-.188.68l4.008,4.149V9.985Zm4.547-1.641v7.29l3.586,3.68,6.962-7.36L18.26,7.806ZM13.033,2.6l-.094.188V8.978l4.805-1.735L13.267,2.532Q13.126,2.578,13.033,2.6Zm20.885-.3h-.375L18.986,7.548l4.993,5.274ZM23.979,13.83l-6.962,7.384,7.29,7.477,6.938-7.2Zm-7.852,7.313-3.188-3.305v6.657Zm8.2,8.532-.984,1.031h1.992Zm7.876-8.157L37.785,27.4l3.094-14.627-.07-.117-.023-.023Zm8.063-9.376a1.271,1.271,0,0,1-.188-.68v-.047L35.019,2.6a1.3,1.3,0,0,1-.3-.117L24.471,13.337,31.738,21ZM12.236,9.235V4.008l-3.821,6.61Zm0,22.174H8.415l3.821,6.634Zm25.432,0L36.543,36.73,39.59,31.41Zm2.86-1.641,4.852-8.462a1.975,1.975,0,0,1-.047-.328q0-.023.07-.375L41.4,13.666,38.371,28.011l1.8,1.922A2.6,2.6,0,0,1,40.528,29.769Z" fill="#fff"/>
</svg>
