<svg xmlns="http://www.w3.org/2000/svg" xmlns:xlink="http://www.w3.org/1999/xlink" width="235" height="76" viewBox="0 0 235 76">
  <defs>
    <filter id="Rectangle_2666" x="17.306" y="16" width="13.032" height="45.217" filterUnits="userSpaceOnUse">
      <feOffset dy="1" input="SourceAlpha"/>
      <feGaussianBlur stdDeviation="1" result="blur"/>
      <feFlood flood-opacity="0.502"/>
      <feComposite operator="in" in2="blur"/>
      <feComposite in="SourceGraphic"/>
    </filter>
    <filter id="Path_11373" x="0" y="23.54" width="47.453" height="37.678" filterUnits="userSpaceOnUse">
      <feOffset dy="1" input="SourceAlpha"/>
      <feGaussianBlur stdDeviation="1" result="blur-2"/>
      <feFlood flood-opacity="0.502"/>
      <feComposite operator="in" in2="blur-2"/>
      <feComposite in="SourceGraphic"/>
    </filter>
  </defs>
  <g id="Group_4" data-name="Group 4" transform="translate(-85 -10)">
    <g id="Group_3" data-name="Group 3" transform="translate(0.423 -0.569)">
      <g id="Group_1" data-name="Group 1" transform="translate(112 -239.685)">
        <path id="Path_13713" data-name="Path 13713" d="M125.33,444.035a1.082,1.082,0,0,0,1.082-1.08v-1.286H130.5v8.736a1.1,1.1,0,0,0,1.079,1.079,1.08,1.08,0,0,0,1.08-1.079v-8.736h4.083v1.284a1.1,1.1,0,0,0,1.08,1.079,1.082,1.082,0,0,0,1.08-1.079v-2.364a1.048,1.048,0,0,0-.312-.758,1.082,1.082,0,0,0-.768-.312H125.33a1.047,1.047,0,0,0-.759.312,1.02,1.02,0,0,0-.321.759v2.364a1.1,1.1,0,0,0,1.08,1.08Zm21.365,2.16a2.551,2.551,0,0,0-.357-1.337,2.649,2.649,0,0,0-2.294-1.313h-2.837a4.155,4.155,0,0,0-2.151.579,4.284,4.284,0,0,0,0,7.408,4.161,4.161,0,0,0,2.151.58h4.471a.985.985,0,0,0,.723-.3.956.956,0,0,0,.294-.7,1,1,0,0,0-1.017-1.017h-4.471a2.276,2.276,0,0,1-2.026-1.249h4.865a2.512,2.512,0,0,0,1.329-.357,2.661,2.661,0,0,0,1.321-2.287Zm-2.65-.625a.615.615,0,0,1,.624.606.089.089,0,0,1,0,.019.621.621,0,0,1-.616.625H139.18a2.26,2.26,0,0,1,2.026-1.25Zm3.362,2.168a4.17,4.17,0,0,0,.584,2.16,4.319,4.319,0,0,0,1.553,1.553,4.166,4.166,0,0,0,2.16.58h2.847a.99.99,0,0,0,.714-.295.976.976,0,0,0,.294-.714,1.012,1.012,0,0,0-.294-.723.992.992,0,0,0-.714-.294H151.7a2.262,2.262,0,1,1,0-4.525h2.847a.963.963,0,0,0,.714-.3,1.014,1.014,0,0,0,0-1.429.992.992,0,0,0-.714-.294H151.7a4.167,4.167,0,0,0-2.16.58,4.31,4.31,0,0,0-1.548,1.552,4.159,4.159,0,0,0-.587,2.153Zm9.218,3.365a1.008,1.008,0,0,0,2.017,0v-3.364a2.268,2.268,0,0,1,2.267-2.257h1.429a2.268,2.268,0,0,1,2.269,2.257v3.284a1.008,1.008,0,0,0,2.017,0v-3.284a4.163,4.163,0,0,0-.578-2.152,4.363,4.363,0,0,0-1.544-1.553,4.231,4.231,0,0,0-2.16-.58h-1.428a4.107,4.107,0,0,0-2.267.652v-3.06a1.008,1.008,0,0,0-2.017,0Zm12.075-7.479a1,1,0,0,0-1.007,1.009V451.1a1.008,1.008,0,1,0,2.017,0v-3.365a2.269,2.269,0,0,1,2.267-2.258H173.4a2.268,2.268,0,0,1,2.267,2.258v3.284a1.017,1.017,0,0,0,1.732.714.976.976,0,0,0,.294-.714v-3.284a4.158,4.158,0,0,0-.579-2.153,4.363,4.363,0,0,0-1.544-1.553,4.293,4.293,0,0,0-2.169-.58h-1.427a4.217,4.217,0,0,0-2.374.723.985.985,0,0,0-.9-.552Zm14.377-.009a4.162,4.162,0,0,0-2.16.58,4.3,4.3,0,0,0,0,7.416,4.167,4.167,0,0,0,2.16.58H184.5a4.167,4.167,0,0,0,2.16-.58,4.289,4.289,0,0,0,0-7.416,4.162,4.162,0,0,0-2.16-.58Zm3.686,4.283a2.286,2.286,0,0,1-2.267,2.267h-1.419a2.262,2.262,0,1,1,0-4.524H184.5a2.28,2.28,0,0,1,2.267,2.258Zm3.15,3.2a1.02,1.02,0,0,0,1.011,1.008.985.985,0,0,0,.723-.3.956.956,0,0,0,.294-.7V441.045a.974.974,0,0,0-.294-.714,1.013,1.013,0,0,0-1.731.714Zm7.443-7.488a4.16,4.16,0,0,0-2.16.58,4.3,4.3,0,0,0,0,7.416,4.165,4.165,0,0,0,2.16.58h1.419a4.168,4.168,0,0,0,2.16-.58,4.289,4.289,0,0,0,0-7.416,4.161,4.161,0,0,0-2.16-.58Zm3.686,4.283a2.287,2.287,0,0,1-2.267,2.267h-1.419a2.262,2.262,0,1,1,0-4.524h1.419a2.279,2.279,0,0,1,2.267,2.258Zm3.989,5.489a1.017,1.017,0,0,0-.714,1.732.976.976,0,0,0,.714.294h4.7a4.163,4.163,0,0,0,2.16-.58,4.339,4.339,0,0,0,1.544-1.544,4.262,4.262,0,0,0,.59-2.16v-3.373a4.237,4.237,0,0,0-.59-2.16,4.34,4.34,0,0,0-1.544-1.544,4.162,4.162,0,0,0-2.16-.579h-1.419a4.166,4.166,0,0,0-2.16.579,4.289,4.289,0,0,0,0,7.417,4.165,4.165,0,0,0,2.16.579h1.419a4.081,4.081,0,0,0,2.252-.642,2.267,2.267,0,0,1-.749,1.419,2.173,2.173,0,0,1-1.5.563Zm3.283-3.364a2.19,2.19,0,0,1-1.142-.3,2.259,2.259,0,0,1-1.126-1.963,2.286,2.286,0,0,1,2.27-2.269h1.419A2.287,2.287,0,0,1,212,447.754a2.2,2.2,0,0,1-.3,1.142,2.261,2.261,0,0,1-1.963,1.126Zm8.309-8.978a1.036,1.036,0,0,0-1.027,1.027.956.956,0,0,0,.3.723,1.025,1.025,0,0,0,1.453-1.445.989.989,0,0,0-.728-.3Zm0,2.5a1,1,0,0,0-1.009,1.008v6.474a1.017,1.017,0,0,0,1.732.714.976.976,0,0,0,.294-.714v-6.474a.976.976,0,0,0-.294-.714,1.012,1.012,0,0,0-.722-.295Zm11.985,2.651a2.545,2.545,0,0,0-.357-1.337,2.648,2.648,0,0,0-2.293-1.314h-2.838a4.157,4.157,0,0,0-2.151.58,4.283,4.283,0,0,0,0,7.407,4.158,4.158,0,0,0,2.151.58h4.471a.986.986,0,0,0,.723-.3.957.957,0,0,0,.294-.7,1.006,1.006,0,0,0-1.017-1.018h-4.471a2.276,2.276,0,0,1-2.026-1.25h4.865a2.513,2.513,0,0,0,1.329-.357,2.66,2.66,0,0,0,1.322-2.282Zm-2.65-.625a.617.617,0,0,1,.625.606v.019a.621.621,0,0,1-.617.625h-4.872a2.26,2.26,0,0,1,2.025-1.25Zm3.784.509a2.579,2.579,0,0,0,.357,1.348,2.618,2.618,0,0,0,2.276,1.329h3.856a.64.64,0,0,1,.607.643.614.614,0,0,1-.607.607h-5.469a.975.975,0,0,0-.714.294.985.985,0,0,0-.3.723.949.949,0,0,0,.3.714.978.978,0,0,0,.714.295h5.471a2.644,2.644,0,0,0,2.633-2.633,2.557,2.557,0,0,0-.357-1.337,2.61,2.61,0,0,0-2.276-1.33h-3.856a.647.647,0,0,1-.607-.651.606.606,0,0,1,.607-.6h5.39a.954.954,0,0,0,.714-.3,1.009,1.009,0,0,0-.714-1.723h-5.39a2.588,2.588,0,0,0-1.322.348,2.639,2.639,0,0,0-1.312,2.276Z" transform="translate(-33.061 -153.334)" fill="#fff"/>
        <path id="Path_13712" data-name="Path 13712" d="M26.58,450.148a1.082,1.082,0,0,0-1.08,1.08,1.1,1.1,0,0,0,1.079,1.079h8.88a3.6,3.6,0,0,0,1.865-.5,3.73,3.73,0,0,0,1.337-1.348,3.6,3.6,0,0,0,.5-1.856,3.722,3.722,0,0,0-.5-1.894,3.782,3.782,0,0,0-1.337-1.362,3.526,3.526,0,0,0-1.865-.509H29.2a1.431,1.431,0,0,1-1.08-.482,1.566,1.566,0,0,1-.464-1.134,1.5,1.5,0,0,1,.455-1.1,1.518,1.518,0,0,1,1.089-.446h8.747a1.082,1.082,0,0,0,1.08-1.079,1.067,1.067,0,0,0-1.08-1.08H29.2a3.6,3.6,0,0,0-1.855.5A3.734,3.734,0,0,0,26,441.356a3.605,3.605,0,0,0-.5,1.864,3.729,3.729,0,0,0,.5,1.892,3.8,3.8,0,0,0,1.35,1.365,3.518,3.518,0,0,0,1.856.509h6.254a1.486,1.486,0,0,1,1.1.482,1.59,1.59,0,0,1,.455,1.134,1.465,1.465,0,0,1-.455,1.089,1.5,1.5,0,0,1-1.1.455Zm22.677-4.971a4.282,4.282,0,0,0-3.284-1.526H44.554a4.221,4.221,0,0,0-2.384.723,1,1,0,0,0-1.607-.259.954.954,0,0,0-.3.714V451.3a.933.933,0,0,0,.3.7.953.953,0,0,0,.714.3,1.022,1.022,0,0,0,1.009-1.009v-3.364a2.267,2.267,0,0,1,2.267-2.257h1.419a2.28,2.28,0,0,1,2.267,2.258v3.284a.95.95,0,0,0,.3.714,1.008,1.008,0,0,0,1.723-.714v-3.284a2.267,2.267,0,0,1,2.267-2.257h1.429a2.252,2.252,0,0,1,2.257,2.252v3.29a.954.954,0,0,0,.3.714,1.009,1.009,0,0,0,1.723-.714v-3.284a4.157,4.157,0,0,0-.581-2.15,4.313,4.313,0,0,0-1.554-1.551,4.152,4.152,0,0,0-2.15-.581H52.532A4.275,4.275,0,0,0,49.256,445.177Zm15.493,7.13a4.313,4.313,0,0,0,2.346-.7,1.009,1.009,0,0,0,1.642.321.975.975,0,0,0,.294-.714v-3.2a4.145,4.145,0,0,0-.571-2.151,4.321,4.321,0,0,0-1.552-1.553,4.169,4.169,0,0,0-2.159-.578H61.912a1.01,1.01,0,0,0-.714,1.723.952.952,0,0,0,.714.3H64.75a2.237,2.237,0,0,1,2.025,1.25H61.91a2.506,2.506,0,0,0-1.321.357,2.631,2.631,0,0,0-1.321,2.286,2.514,2.514,0,0,0,.36,1.333,2.642,2.642,0,0,0,2.286,1.321Zm2.026-3.275a2.252,2.252,0,0,1-2.026,1.249H61.912a.626.626,0,0,1-.446-1.065.62.62,0,0,1,.438-.184ZM72.1,444.48a1.007,1.007,0,0,0-2,.178v6.56a1.008,1.008,0,1,0,2.017,0v-3.113a2.283,2.283,0,0,1,2.257-2.258.985.985,0,0,0,.723-.3,1.009,1.009,0,0,0-.723-1.723,4.119,4.119,0,0,0-2.275.66Zm5.132-4.248a1.006,1.006,0,0,0-1.009,1.009v6.693a4.165,4.165,0,0,0,.58,2.16,4.32,4.32,0,0,0,1.553,1.553,4.159,4.159,0,0,0,2.15.58h2.847a1.016,1.016,0,0,0,.715-1.731.976.976,0,0,0-.714-.294H80.51a2.286,2.286,0,0,1-2.267-2.267v-2.257h1.83a1.013,1.013,0,1,0,0-2.027h-1.83v-2.409a1.006,1.006,0,0,0-1.009-1.009Z" transform="translate(3.501 -153.335)" fill="#fff"/>
      </g>
      <g id="Group_2" data-name="Group 2" transform="translate(-23 -116.431)">
        <path id="Path_11370" data-name="Path 11370" d="M176.577,391.361l7.33,5.822h10l-15.693-13.376-1.633,1.352Z" transform="translate(-41.661 -212.965)" fill="#fff"/>
        <g id="Group_13171" data-name="Group 13171" transform="translate(127.914 170.275)">
          <rect id="Rectangle_2667-2" data-name="Rectangle 2667-2" width="6.972" height="8.279" fill="#20232b"/>
        </g>
        <g transform="matrix(1, 0, 0, 1, 107.58, 127)" filter="url(#Rectangle_2666)">
          <rect id="Rectangle_2666-2" data-name="Rectangle 2666" width="7.032" height="39.217" transform="translate(20.31 18)" fill="#fff"/>
        </g>
        <path id="Path_11371" data-name="Path 11371" d="M207.5,349.689l.142,8.893,6.981,6.117-.249-20.866Z" transform="translate(-62.37 -186.194)" fill="#e31c25"/>
        <g id="Group_13172" data-name="Group 13172" transform="translate(145.132 152.539)">
          <path id="Path_11372-2" data-name="Path 11372-2" d="M212.819,328.68c-1.912-.97-3.807.839-3.807.839l-1.505,1.3v8.533l6.875-5.854v-1.149S214.73,329.652,212.819,328.68Z" transform="translate(-207.507 -328.395)" fill="#e5001c"/>
        </g>
        <g transform="matrix(1, 0, 0, 1, 107.58, 127)" filter="url(#Path_11373)">
          <path id="Path_11373-2" data-name="Path 11373" d="M109.627,360.075h-6.733V331.757s.149-2.422,2.294-2.888a3.7,3.7,0,0,1,3.266.582l13.69,11.667a2.448,2.448,0,0,0,3.491,0c1.814-1.694,13.316-11.6,13.316-11.6s1.895-1.809,3.807-.839,1.563,3.664,1.563,3.664V333.5l-18.337,15.618a3.7,3.7,0,0,1-2.365,1.181,4.25,4.25,0,0,1-2.556-1.288c-.57-.532-11.288-9.75-11.288-9.75Z" transform="translate(-99.89 -302.86)" fill="#e31c25"/>
        </g>
      </g>
    </g>
    <rect id="Rectangle_2" data-name="Rectangle 2" width="234" height="76" transform="translate(86 10)" fill="none"/>
  </g>
</svg>
