<svg id="java" xmlns="http://www.w3.org/2000/svg" width="48.005" height="47.958" viewBox="0 0 48.005 47.958">
  <path id="Path_43" data-name="Path 43" d="M44.161,35.957a4.041,4.041,0,0,1-2.321-.844,6.956,6.956,0,0,1-1.992-2.2,6.35,6.35,0,0,0,.656.047,5.543,5.543,0,0,0,3.188-.891A2.543,2.543,0,0,0,45,29.956a2.446,2.446,0,0,0-1.172-2.016,5.655,5.655,0,0,0-2.907-.984,18,18,0,0,1-6.54,2.156A58.06,58.06,0,0,1,24,29.956,52.484,52.484,0,0,1,11.275,28.62Q6,27.284,6,25.456q0-1.406,3.094-2.532.656,1.688,5.344,2.86A46.018,46.018,0,0,0,25.5,26.956a48.756,48.756,0,0,0,9.517-.844,15.779,15.779,0,0,0,6-2.156,2.827,2.827,0,0,1,.8.844,4.145,4.145,0,0,1,2.344-.844,3.225,3.225,0,0,1,2.719,1.758,7.706,7.706,0,0,1,1.125,4.243A7.706,7.706,0,0,1,46.88,34.2,3.225,3.225,0,0,1,44.161,35.957ZM27,14.908a7.661,7.661,0,0,0,.469,2.766A7.265,7.265,0,0,0,28.5,19.6a7.511,7.511,0,0,1,1.031,1.852A6.575,6.575,0,0,1,30,23.956q-.234-.141-.633-.375a14.482,14.482,0,0,1-1.453-1.1,12.63,12.63,0,0,1-1.828-1.828,10.615,10.615,0,0,1-1.43-2.508A8.2,8.2,0,0,1,24,14.908a5.116,5.116,0,0,1,1.477-3.258,14.018,14.018,0,0,1,3.493-2.907,29.609,29.609,0,0,1,3.985-1.992A7.965,7.965,0,0,1,36,6a6.973,6.973,0,0,0-2.977,1.453,22.007,22.007,0,0,0-4.079,3.657Q27,13.314,27,14.908Zm-9,1.547a9.5,9.5,0,0,0,.75,3.516,15.074,15.074,0,0,0,1.5,2.953L21,24a5.282,5.282,0,0,1-4.125-2.391A8.194,8.194,0,0,1,15,16.455a4.088,4.088,0,0,1,.938-2.461,11.8,11.8,0,0,1,2.25-2.25q1.313-1.008,2.625-1.9a19.164,19.164,0,0,0,2.25-1.758A2.336,2.336,0,0,0,24,6.563a16.448,16.448,0,0,0-.141-2.3,7.555,7.555,0,0,0-.774-2.25A5,5,0,0,0,21.284,0,6.126,6.126,0,0,1,25.6,2.086,6.942,6.942,0,0,1,27,6.563a4.161,4.161,0,0,1-.938,2.672,7.829,7.829,0,0,1-2.25,1.922q-1.313.75-2.625,1.453a9.149,9.149,0,0,0-2.25,1.664A3.041,3.041,0,0,0,18,16.455Zm6,22.5q6.891,0,10.36-1.5,1.641.7,1.641,1.5,0,1.219-3.516,2.11A34.99,34.99,0,0,1,24,41.958a34.99,34.99,0,0,1-8.485-.891Q12,40.176,12,38.957q0-.8,1.641-1.5Q17.111,38.957,24,38.957Zm-15-6q0-.8,2.016-1.5,4.36,1.5,12.986,1.5t12.986-1.5q2.016.7,2.016,1.5,0,1.219-4.407,2.11a54.441,54.441,0,0,1-10.618.891,54.074,54.074,0,0,1-10.595-.891Q9,34.176,9,32.957Zm-3,6Q6,40.6,8.415,41.981a21.582,21.582,0,0,0,6.563,2.18,47.886,47.886,0,0,0,9.024.8,47.886,47.886,0,0,0,9.024-.8,21.582,21.582,0,0,0,6.563-2.18Q42,40.6,42,38.957a2.137,2.137,0,0,0-.281-1.031q6.282,1.688,6.282,4.032,0,1.641-3.211,3.024a35.579,35.579,0,0,1-8.743,2.18,84.726,84.726,0,0,1-12.048.8,84.726,84.726,0,0,1-12.048-.8,35.579,35.579,0,0,1-8.743-2.18Q0,43.6,0,41.958q0-2.344,6.282-4.032A2.137,2.137,0,0,0,6,38.957Z" fill="#fff"/>
</svg>
