<svg xmlns="http://www.w3.org/2000/svg" width="251.254" height="142.459" viewBox="0 0 251.254 142.459">
  <g id="DESIGNED_BY_FREEPIK" data-name="DESIGNED BY FREEPIK" transform="translate(-25.5 -305.572)">
    <g id="dark" transform="translate(25.5 305.572)">
      <g id="Group_12760" data-name="Group 12760" transform="translate(0 119.873)">
        <path id="Path_13713" data-name="Path 13713" d="M125.785,445.937a1.538,1.538,0,0,0,1.537-1.535v-1.827h5.807V454.99a1.557,1.557,0,0,0,1.534,1.534,1.535,1.535,0,0,0,1.535-1.534V442.575H142V444.4a1.559,1.559,0,0,0,1.535,1.534,1.537,1.537,0,0,0,1.535-1.534V441.04a1.489,1.489,0,0,0-.444-1.077,1.537,1.537,0,0,0-1.091-.444H125.785a1.488,1.488,0,0,0-1.078.443,1.45,1.45,0,0,0-.456,1.078V444.4a1.561,1.561,0,0,0,1.535,1.535Zm30.361,3.069a3.624,3.624,0,0,0-.508-1.9,3.765,3.765,0,0,0-3.26-1.866h-4.031a5.905,5.905,0,0,0-3.057.823,6.134,6.134,0,0,0-2.206,2.207,6.08,6.08,0,0,0,0,6.113,6.134,6.134,0,0,0,2.206,2.207,5.915,5.915,0,0,0,3.057.824H154.7a1.4,1.4,0,0,0,1.027-.432,1.358,1.358,0,0,0,.418-1,1.427,1.427,0,0,0-1.445-1.445h-6.354a3.234,3.234,0,0,1-2.879-1.775h6.913a3.571,3.571,0,0,0,1.889-.507A3.782,3.782,0,0,0,156.146,449.005Zm-3.766-.888a.874.874,0,0,1,.887.861.127.127,0,0,1,0,.027.882.882,0,0,1-.876.888h-6.925a3.211,3.211,0,0,1,2.879-1.776Zm4.778,3.081a5.925,5.925,0,0,0,.83,3.07,6.137,6.137,0,0,0,2.207,2.207,5.921,5.921,0,0,0,3.069.824h4.046a1.407,1.407,0,0,0,1.015-.419,1.387,1.387,0,0,0,.418-1.015,1.438,1.438,0,0,0-.418-1.027,1.41,1.41,0,0,0-1.015-.418h-4.049a3.215,3.215,0,1,1,0-6.43h4.046a1.369,1.369,0,0,0,1.015-.431,1.441,1.441,0,0,0,0-2.03,1.41,1.41,0,0,0-1.015-.418h-4.046a5.922,5.922,0,0,0-3.069.824,6.125,6.125,0,0,0-2.2,2.205A5.91,5.91,0,0,0,157.158,451.2Zm13.1,4.782a1.433,1.433,0,0,0,2.866,0V451.2a3.223,3.223,0,0,1,3.221-3.208h2.03A3.223,3.223,0,0,1,181.6,451.2v4.667a1.433,1.433,0,1,0,2.866,0V451.2a5.915,5.915,0,0,0-.822-3.058,6.2,6.2,0,0,0-2.194-2.207,6.013,6.013,0,0,0-3.069-.824h-2.03a5.836,5.836,0,0,0-3.221.927v-4.349a1.433,1.433,0,1,0-2.866,0Zm17.159-10.628a1.424,1.424,0,0,0-1.431,1.434v9.195a1.433,1.433,0,0,0,2.866,0V451.2a3.224,3.224,0,0,1,3.221-3.209H194.1a3.223,3.223,0,0,1,3.221,3.209v4.667a1.428,1.428,0,0,0,1.434,1.433,1.438,1.438,0,0,0,1.027-.418,1.387,1.387,0,0,0,.418-1.015V451.2a5.909,5.909,0,0,0-.823-3.059,6.2,6.2,0,0,0-2.194-2.207,6.1,6.1,0,0,0-3.082-.824h-2.028a5.993,5.993,0,0,0-3.374,1.027,1.4,1.4,0,0,0-1.282-.784Zm20.431-.013a5.914,5.914,0,0,0-3.069.824,6.089,6.089,0,0,0-2.194,2.207,6.1,6.1,0,0,0,0,6.125,6.1,6.1,0,0,0,2.194,2.207,5.922,5.922,0,0,0,3.069.824h2.017a5.922,5.922,0,0,0,3.069-.824,6.137,6.137,0,0,0,2.207-2.207,6.1,6.1,0,0,0,0-6.125,6.13,6.13,0,0,0-2.207-2.207,5.914,5.914,0,0,0-3.069-.824Zm5.238,6.087a3.249,3.249,0,0,1-3.221,3.221h-2.017a3.215,3.215,0,1,1,0-6.429h2.017a3.24,3.24,0,0,1,3.222,3.209Zm4.477,4.553A1.45,1.45,0,0,0,219,457.413a1.4,1.4,0,0,0,1.027-.431,1.359,1.359,0,0,0,.418-1V441.687a1.384,1.384,0,0,0-.418-1.015,1.439,1.439,0,0,0-1.027-.419,1.429,1.429,0,0,0-1.433,1.434Zm10.577-10.641a5.912,5.912,0,0,0-3.069.824,6.09,6.09,0,0,0-2.194,2.207,6.1,6.1,0,0,0,0,6.125,6.1,6.1,0,0,0,2.194,2.207,5.919,5.919,0,0,0,3.069.824h2.017a5.922,5.922,0,0,0,3.069-.824,6.144,6.144,0,0,0,2.207-2.207,6.107,6.107,0,0,0,0-6.125,6.138,6.138,0,0,0-2.207-2.207,5.914,5.914,0,0,0-3.069-.824Zm5.238,6.087a3.25,3.25,0,0,1-3.221,3.221h-2.017a3.215,3.215,0,1,1,0-6.429h2.017a3.239,3.239,0,0,1,3.222,3.209Zm5.668,7.8a1.428,1.428,0,0,0-1.433,1.434,1.438,1.438,0,0,0,.418,1.027,1.387,1.387,0,0,0,1.015.418h6.683a5.916,5.916,0,0,0,3.069-.824,6.166,6.166,0,0,0,2.194-2.194,6.056,6.056,0,0,0,.838-3.069v-4.793a6.022,6.022,0,0,0-.838-3.07,6.167,6.167,0,0,0-2.194-2.194,5.916,5.916,0,0,0-3.069-.823h-2.017a5.919,5.919,0,0,0-3.069.823,6.138,6.138,0,0,0-2.207,2.207,6.1,6.1,0,0,0,0,6.126,6.144,6.144,0,0,0,2.207,2.207,5.919,5.919,0,0,0,3.069.823h2.016a5.8,5.8,0,0,0,3.2-.913,3.221,3.221,0,0,1-1.065,2.017,3.088,3.088,0,0,1-2.131.8Zm4.666-4.781a3.11,3.11,0,0,1-1.623-.431,3.21,3.21,0,0,1-1.6-2.79A3.249,3.249,0,0,1,243.715,448h2.016a3.25,3.25,0,0,1,3.222,3.221,3.119,3.119,0,0,1-.432,1.623,3.213,3.213,0,0,1-2.79,1.6Zm11.808-12.758a1.473,1.473,0,0,0-1.459,1.459,1.359,1.359,0,0,0,.431,1.027,1.45,1.45,0,0,0,2.483-1.027,1.44,1.44,0,0,0-.418-1.027,1.406,1.406,0,0,0-1.035-.431Zm0,3.551a1.428,1.428,0,0,0-1.434,1.433v9.2a1.428,1.428,0,0,0,1.434,1.433,1.439,1.439,0,0,0,1.027-.418,1.387,1.387,0,0,0,.418-1.015v-9.2a1.387,1.387,0,0,0-.418-1.015,1.438,1.438,0,0,0-1.026-.419Zm17.031,3.767a3.617,3.617,0,0,0-.507-1.9,3.763,3.763,0,0,0-3.258-1.867h-4.033a5.906,5.906,0,0,0-3.057.824,6.128,6.128,0,0,0-2.206,2.207,6.078,6.078,0,0,0,0,6.112,6.134,6.134,0,0,0,2.206,2.207,5.907,5.907,0,0,0,3.057.824h6.354a1.4,1.4,0,0,0,1.027-.431,1.359,1.359,0,0,0,.418-1,1.429,1.429,0,0,0-1.445-1.446h-6.354a3.234,3.234,0,0,1-2.879-1.776h6.913a3.571,3.571,0,0,0,1.889-.507,3.78,3.78,0,0,0,1.878-3.243Zm-3.766-.888a.876.876,0,0,1,.888.861v.027a.883.883,0,0,1-.877.888h-6.924a3.211,3.211,0,0,1,2.878-1.776Zm5.377.723a3.665,3.665,0,0,0,.507,1.915,3.721,3.721,0,0,0,3.234,1.889h5.479a.909.909,0,0,1,.863.914.872.872,0,0,1-.863.862h-7.772a1.385,1.385,0,0,0-1.015.418,1.4,1.4,0,0,0-.431,1.027,1.349,1.349,0,0,0,.431,1.015,1.39,1.39,0,0,0,1.015.419h7.774a3.757,3.757,0,0,0,3.742-3.742,3.633,3.633,0,0,0-.507-1.9,3.709,3.709,0,0,0-3.234-1.89h-5.479a.92.92,0,0,1-.863-.925.861.861,0,0,1,.863-.849h7.66a1.356,1.356,0,0,0,1.015-.431,1.434,1.434,0,0,0-1.015-2.448h-7.66a3.677,3.677,0,0,0-1.878.495,3.751,3.751,0,0,0-1.864,3.234Z" transform="translate(-35.876 -439.519)" fill="#381e39"/>
        <path id="Path_13712" data-name="Path 13712" d="M27.035,454.623a1.538,1.538,0,0,0-1.535,1.535,1.557,1.557,0,0,0,1.534,1.534H39.653a5.122,5.122,0,0,0,2.651-.71,5.3,5.3,0,0,0,1.9-1.915,5.109,5.109,0,0,0,.71-2.638,5.289,5.289,0,0,0-.71-2.691,5.373,5.373,0,0,0-1.9-1.936,5.011,5.011,0,0,0-2.651-.723h-8.89a2.034,2.034,0,0,1-1.535-.685,2.225,2.225,0,0,1-.66-1.611,2.128,2.128,0,0,1,.647-1.56,2.157,2.157,0,0,1,1.547-.634H43.192a1.537,1.537,0,0,0,1.535-1.534,1.516,1.516,0,0,0-1.535-1.535H30.763a5.109,5.109,0,0,0-2.636.709,5.306,5.306,0,0,0-1.918,1.9,5.123,5.123,0,0,0-.71,2.649,5.3,5.3,0,0,0,.71,2.689,5.4,5.4,0,0,0,1.918,1.94,5,5,0,0,0,2.637.723h8.888a2.111,2.111,0,0,1,1.56.685,2.26,2.26,0,0,1,.647,1.611,2.081,2.081,0,0,1-.647,1.547,2.126,2.126,0,0,1-1.56.647Zm32.225-7.064a6.086,6.086,0,0,0-4.667-2.168H52.577a6,6,0,0,0-3.388,1.027,1.426,1.426,0,0,0-2.283-.368,1.356,1.356,0,0,0-.431,1.015v9.195a1.326,1.326,0,0,0,.431,1,1.355,1.355,0,0,0,1.015.431,1.452,1.452,0,0,0,1.434-1.434v-4.781a3.222,3.222,0,0,1,3.221-3.208h2.016a3.24,3.24,0,0,1,3.222,3.208v4.667a1.35,1.35,0,0,0,.431,1.015,1.433,1.433,0,0,0,2.448-1.015v-4.667a3.222,3.222,0,0,1,3.221-3.208h2.031a3.2,3.2,0,0,1,3.208,3.2v4.675a1.356,1.356,0,0,0,.431,1.015,1.434,1.434,0,0,0,2.449-1.015v-4.667a5.907,5.907,0,0,0-.825-3.055A6.13,6.13,0,0,0,69,446.217a5.9,5.9,0,0,0-3.056-.826H63.915A6.075,6.075,0,0,0,59.26,447.559Zm22.016,10.133a6.131,6.131,0,0,0,3.334-.989,1.434,1.434,0,0,0,2.334.456,1.385,1.385,0,0,0,.418-1.015V451.6a5.89,5.89,0,0,0-.812-3.057,6.141,6.141,0,0,0-2.206-2.207,5.924,5.924,0,0,0-3.068-.821H77.244a1.435,1.435,0,0,0-1.015,2.449,1.352,1.352,0,0,0,1.015.431h4.033a3.179,3.179,0,0,1,2.878,1.776H77.242a3.561,3.561,0,0,0-1.877.507,3.739,3.739,0,0,0-1.877,3.249A3.572,3.572,0,0,0,74,455.821a3.755,3.755,0,0,0,3.249,1.877Zm2.879-4.654a3.2,3.2,0,0,1-2.879,1.775H77.244a.89.89,0,0,1-.888-.888.881.881,0,0,1,.876-.887h6.923Zm7.571-6.469a1.427,1.427,0,0,0-1.408-1.18,1.427,1.427,0,0,0-1.433,1.433v9.322a1.433,1.433,0,1,0,2.866,0v-4.424a3.244,3.244,0,0,1,3.208-3.208,1.4,1.4,0,0,0,1.027-.431,1.441,1.441,0,0,0,0-2.03,1.439,1.439,0,0,0-1.027-.419A5.854,5.854,0,0,0,91.726,446.57Zm7.293-6.037a1.43,1.43,0,0,0-1.434,1.434v9.511a5.919,5.919,0,0,0,.824,3.069,6.138,6.138,0,0,0,2.207,2.207,5.909,5.909,0,0,0,3.056.824h4.046a1.428,1.428,0,0,0,1.434-1.433,1.44,1.44,0,0,0-.418-1.027,1.387,1.387,0,0,0-1.015-.418h-4.046a3.249,3.249,0,0,1-3.221-3.221v-3.208h2.6a1.445,1.445,0,0,0,1.027-2.462,1.437,1.437,0,0,0-1.027-.418h-2.6v-3.424a1.429,1.429,0,0,0-1.434-1.434Z" transform="translate(-25.5 -439.519)" fill="#e5001c"/>
      </g>
      <g id="Group_12761" data-name="Group 12761" transform="translate(69.262)">
        <path id="Path_11370" data-name="Path 11370" d="M176.578,404.272l19.859,15.774h27.081L181,383.807l-4.424,3.664Z" transform="translate(-110.636 -313.793)" fill="#4a2c4d"/>
        <g id="Group_13171" data-name="Group 13171" transform="translate(46.97 68.478)">
          <rect id="Rectangle_2667-2" data-name="Rectangle 2667-2" width="18.89" height="22.431" fill="#20232b"/>
        </g>
        <rect id="Rectangle_2666" data-name="Rectangle 2666" width="19.052" height="106.253" transform="translate(46.889)" fill="#4a2c4d"/>
        <path id="Path_11371" data-name="Path 11371" d="M207.5,359.7l.386,24.094L226.8,400.366l-.675-56.534Z" transform="translate(-113.886 -309.592)" fill="#e5001c"/>
        <g id="Group_13172" data-name="Group 13172" transform="translate(93.618 20.425)">
          <path id="Path_11372-2" data-name="Path 11372-2" d="M221.9,329.169c-5.179-2.627-10.315,2.272-10.315,2.272l-4.078,3.514v23.118l18.626-15.861V339.1S227.077,331.8,221.9,329.169Z" transform="translate(-207.504 -328.395)" fill="#e5001c"/>
        </g>
        <path id="Path_11373" data-name="Path 11373" d="M121.136,414.224H102.894V337.5s.405-6.562,6.216-7.824,8.849,1.578,8.849,1.578l37.091,31.611s4.544,4.59,9.458,0,36.078-31.421,36.078-31.421,5.134-4.9,10.315-2.272,4.234,9.927,4.234,9.927v3.111l-49.68,42.315s-3.266,3.449-6.407,3.2a11.515,11.515,0,0,1-6.926-3.491c-1.543-1.441-30.582-26.416-30.582-26.416Z" transform="translate(-102.894 -307.97)" fill="#e5001c"/>
      </g>
    </g>
  </g>
</svg>
