<svg xmlns="http://www.w3.org/2000/svg" width="31.5" height="42" viewBox="0 0 31.5 42">
  <g id="mobile_app_developent" data-name="mobile app developent" transform="translate(-9 -3)">
    <path id="Path_17" data-name="Path 17" d="M34.5,10.5h6v6h-6Z" fill="#fff"/>
    <path id="Path_18" data-name="Path 18" d="M34.5,19.5h6v6h-6Z" fill="#fff"/>
    <path id="Path_19" data-name="Path 19" d="M25.5,10.5h6v6h-6Z" fill="#fff"/>
    <path id="Path_20" data-name="Path 20" d="M25.5,19.5h6v6h-6Z" fill="#fff"/>
    <circle id="Ellipse_5" data-name="Ellipse 5" cx="2.25" cy="2.25" r="2.25" transform="translate(19.5 34.5)" fill="#fff"/>
    <path id="Path_21" data-name="Path 21" d="M31.5,45H12a3,3,0,0,1-3-3V6a3,3,0,0,1,3-3H31.5V6H12V42H31.5V30h3V42a3,3,0,0,1-3,3Z" fill="#fff"/>
  </g>
</svg>
