<svg xmlns="http://www.w3.org/2000/svg" width="37.342" height="42.667" viewBox="0 0 37.342 42.667">
  <g id="network-globe-line" transform="translate(-5 -2.667)">
    <path id="Path_41" data-name="Path 41" d="M35.44,42.667h-24a1.333,1.333,0,1,0,0,2.667h24a1.333,1.333,0,1,0,0-2.667Z" fill="#fff"/>
    <path id="Path_42" data-name="Path 42" d="M23.667,2.667A18.667,18.667,0,0,0,5,21.333a11.211,11.211,0,0,0,.093,1.773A18.667,18.667,0,1,0,23.667,2.667Zm0,2.667A16,16,0,0,1,34.92,9.973v1.333a24.68,24.68,0,0,0-16.253.067,3.107,3.107,0,0,0-1.52-.813h-.333c-.16-.56-.307-1.12-.427-1.693s-.187-1.08-.253-1.627a15.893,15.893,0,0,1,7.533-1.907Zm-4,7.827a22.667,22.667,0,0,1,14.893.173,22.533,22.533,0,0,1-4.147,9.333,3.04,3.04,0,0,0-3.44.76,11.941,11.941,0,0,1-1.333-.84,21.333,21.333,0,0,1-6.573-6.973,3,3,0,0,0,.627-2.36Zm-5.333-4.8a4.729,4.729,0,0,0,.133.853c.12.587.28,1.16.44,1.733a3.04,3.04,0,0,0-1.467,3A24.427,24.427,0,0,0,7.867,18.96a16,16,0,0,1,6.48-10.6Zm0,20.947a3.12,3.12,0,0,0-2.067,2.347h-.853a15.92,15.92,0,0,1-3.68-9.093l.147-.253a22.533,22.533,0,0,1,6.413-6.52,3.08,3.08,0,0,0,3.04.84,23.373,23.373,0,0,0,7.133,7.533c.547.36,1.107.693,1.667,1.013a3.093,3.093,0,0,0,.24,1.493,22.587,22.587,0,0,1-8.267,4.147,3.12,3.12,0,0,0-3.76-1.48Zm9.333,8a15.893,15.893,0,0,1-7.747-2.013l.373-.08a3.12,3.12,0,0,0,2.093-2.387A24.573,24.573,0,0,0,27.72,28.16a3.053,3.053,0,0,0,4-.827,23.213,23.213,0,0,0,5.76.747h.707a16,16,0,0,1-14.52,9.253Zm8.68-11.867a3.107,3.107,0,0,0-.44-1.587,24.533,24.533,0,0,0,4.52-9.827q1,.467,1.973,1.04A16,16,0,0,1,38.96,26a21.333,21.333,0,0,1-6.6-.52Z" fill="#fff"/>
  </g>
</svg>
