<svg xmlns="http://www.w3.org/2000/svg" width="40" height="40" viewBox="0 0 40 40">
  <g id="Path_44" data-name="Path 44" fill="none">
    <path d="M0,0H40S20.281,19.728,19.85,19.943,40,40,40,40H0Z" stroke="none"/>
    <path d="M 2.5 2.5 L 2.5 37.5 L 33.82265472412109 37.5 C 32.13111114501953 35.85808563232422 30.13067817687988 33.91115570068359 28.14181137084961 31.96347045898438 C 25.20098114013672 29.08351898193359 22.85931015014648 26.76428985595703 21.18185997009277 25.0701904296875 C 20.17383003234863 24.05216026306152 19.39196014404297 23.24574089050293 18.85796928405762 22.67333984375 C 17.91732025146484 21.66501998901367 17.17432975769043 20.86858940124512 17.37215042114258 19.57485008239746 C 17.47144317626953 18.92550086975098 17.82115936279297 18.34578323364258 18.33461952209473 17.95470237731934 C 19.31114387512207 17.08694839477539 27.21946334838867 9.228582382202148 33.96105194091797 2.5 L 2.5 2.5 M 0 0 L 40 0 C 40 0 20.28051948547363 19.72790908813477 19.84984970092773 19.94323921203613 C 19.419189453125 20.1585693359375 40 40 40 40 L 0 40 L 0 0 Z" stroke="none" fill="#fff"/>
  </g>
</svg>
