<svg xmlns="http://www.w3.org/2000/svg" width="45" height="45" viewBox="0 0 45 45">
  <g id="quality_assurance" data-name="quality assurance" transform="translate(-1.5 -1.5)">
    <path id="Path_31" data-name="Path 31" d="M9,13.69V1.5H6V13.69A6,6,0,0,0,6,25.31V46.5H9V25.31A6,6,0,0,0,9,13.69ZM7.5,22.5a3,3,0,1,1,3-3A3,3,0,0,1,7.5,22.5Z" fill="#fff"/>
    <path id="Path_32" data-name="Path 32" d="M25.5,27.19V1.5h-3V27.19a6,6,0,0,0,0,11.62V46.5h3V38.81a6,6,0,0,0,0-11.62ZM24,36a3,3,0,1,1,3-3A3,3,0,0,1,24,36Z" fill="#fff"/>
    <path id="Path_33" data-name="Path 33" d="M42,7.69V1.5H39V7.69a6,6,0,0,0,0,11.62V46.5h3V19.31A6,6,0,0,0,42,7.69ZM40.5,16.5a3,3,0,1,1,3-3A3,3,0,0,1,40.5,16.5Z" fill="#fff"/>
  </g>
</svg>
