<svg xmlns="http://www.w3.org/2000/svg" width="38.373" height="44.76" viewBox="0 0 38.373 44.76">
  <g id="tracking_apps" data-name="tracking apps" transform="translate(-8.293 -1.333)">
    <path id="Path_29" data-name="Path 29" d="M24,8.96a7.64,7.64,0,1,0,7.64,7.64A7.64,7.64,0,0,0,24,8.96Zm0,12.613a4.966,4.966,0,1,0,0-.013Z" fill="#fff"/>
    <path id="Path_30" data-name="Path 30" d="M39.693,17.987a9.987,9.987,0,0,1-2.667-.44v.76c0,5.413-3.227,10.227-5.587,13.747l-.48.707a108.4,108.4,0,0,1-6.973,9.2c-1.573-1.907-4.68-5.76-6.973-9.2L16.56,32c-2.36-3.52-5.6-8.333-5.6-13.747A13.027,13.027,0,0,1,30.08,6.787a9.933,9.933,0,0,1,.693-2.667A15.667,15.667,0,0,0,8.293,18.307c0,6.227,3.493,11.44,6.053,15.24l.467.693A132.815,132.815,0,0,0,23,44.907l1.013,1.187,1.013-1.187A133.094,133.094,0,0,0,33.213,34.24l.467-.707c2.547-3.8,6.04-9,6.04-15.227A2.589,2.589,0,0,1,39.693,17.987Z" fill="#fff"/>
    <circle id="Ellipse_10" data-name="Ellipse 10" cx="6.667" cy="6.667" r="6.667" transform="translate(33.333 1.333)" fill="#fff"/>
  </g>
</svg>
