<svg id="web_development" data-name="web development" xmlns="http://www.w3.org/2000/svg" width="48" height="48" viewBox="0 0 48 48">
  <g id="Group_3" data-name="Group 3">
    <path id="Path_35" data-name="Path 35" d="M0,24A24,24,0,1,1,24,48,24,24,0,0,1,0,24ZM22.5,3.231c-2.01.612-4.005,2.46-5.661,5.565a23.91,23.91,0,0,0-1.4,3.2H22.5V3.231ZM12.27,12a27.8,27.8,0,0,1,1.92-4.617,20.1,20.1,0,0,1,1.791-2.8A21.075,21.075,0,0,0,6.765,12ZM10.524,22.5A41.107,41.107,0,0,1,11.46,15H5.022a20.874,20.874,0,0,0-1.968,7.5ZM14.541,15a37.5,37.5,0,0,0-1.014,7.5H22.5V15ZM25.5,15v7.5h8.97A37.485,37.485,0,0,0,33.459,15ZM13.53,25.5A37.5,37.5,0,0,0,14.541,33H22.5V25.5Zm11.97,0V33h7.959a37.361,37.361,0,0,0,1.014-7.5ZM15.435,36a23.892,23.892,0,0,0,1.4,3.2c1.656,3.1,3.654,4.95,5.661,5.565V36Zm.546,7.416a20.088,20.088,0,0,1-1.791-2.8A27.8,27.8,0,0,1,12.27,36h-5.5a21.072,21.072,0,0,0,9.216,7.416ZM11.46,33a40.956,40.956,0,0,1-.936-7.5H3.054A20.779,20.779,0,0,0,5.022,33ZM32.019,43.416A21.072,21.072,0,0,0,41.235,36h-5.5a27.809,27.809,0,0,1-1.92,4.617,20.064,20.064,0,0,1-1.791,2.8ZM25.5,36v8.769c2.01-.612,4.005-2.46,5.661-5.565a23.892,23.892,0,0,0,1.4-3.2H25.5Zm11.04-3h6.438a20.779,20.779,0,0,0,1.968-7.5h-7.47A40.95,40.95,0,0,1,36.54,33Zm8.406-10.5A20.877,20.877,0,0,0,42.978,15H36.54a41.108,41.108,0,0,1,.936,7.5ZM33.81,7.383A27.765,27.765,0,0,1,35.73,12h5.5a21.072,21.072,0,0,0-9.216-7.416,20.363,20.363,0,0,1,1.791,2.8ZM32.565,12a23.9,23.9,0,0,0-1.4-3.2C29.505,5.691,27.51,3.846,25.5,3.231V12Z" fill="#fff"/>
  </g>
</svg>
